<?xml version="1.0" standalone="no"?>
<!DOCTYPE svg PUBLIC "-//W3C//DTD SVG 20010904//EN"
 "http://www.w3.org/TR/2001/REC-SVG-20010904/DTD/svg10.dtd">
<svg version="1.0" xmlns="http://www.w3.org/2000/svg"
 width="366.000000pt" height="366.000000pt" viewBox="0 0 366.000000 366.000000"
 preserveAspectRatio="xMidYMid meet">
<metadata>
Created by potrace 1.14, written by Peter Selinger 2001-2017
</metadata>
<g transform="translate(0.000000,366.000000) scale(0.100000,-0.100000)"
fill="#000000" stroke="none">
<path d="M2788 3655 c-2 -2 -29 -5 -61 -9 -32 -3 -104 -15 -160 -26 -694 -140
-1188 -537 -1412 -1135 -21 -55 -38 -104 -39 -110 -2 -5 -8 -28 -14 -50 -16
-57 -50 -224 -57 -282 -3 -26 -8 -64 -11 -83 -6 -40 -6 -265 0 -295 2 -11 7
-45 11 -75 4 -30 11 -71 15 -90 5 -19 11 -49 14 -65 10 -57 63 -229 95 -310
59 -148 179 -351 269 -458 61 -73 202 -206 277 -263 125 -94 215 -146 386
-223 126 -56 343 -120 494 -146 55 -9 102 -18 105 -20 3 -1 44 -6 93 -10 l87
-7 0 270 0 269 -84 12 c-246 34 -506 134 -709 273 -500 343 -653 992 -370
1563 171 346 464 584 833 680 83 22 247 50 318 54 9 1 12 62 12 271 l0 270
-45 -2 c-25 0 -46 -2 -47 -3z"/>
<path d="M2828 2866 c-1 -2 -34 -6 -73 -10 -477 -45 -835 -381 -920 -862 -53
-301 54 -633 275 -853 170 -170 403 -272 672 -297 l76 -7 -1 262 c-1 143 -5
261 -9 262 -37 4 -140 34 -189 54 -155 66 -251 171 -288 318 -21 83 -19 157 8
245 58 192 219 324 424 348 l54 6 0 264 c0 201 -3 264 -13 268 -6 2 -14 3 -16
2z"/>
</g>
</svg>
