<?xml version="1.0" encoding="utf-8"?>
<!-- Generator: Adobe Illustrator 22.0.1, SVG Export Plug-In . SVG Version: 6.00 Build 0)  -->
<svg version="1.1" id="Слой_1" xmlns="http://www.w3.org/2000/svg" xmlns:xlink="http://www.w3.org/1999/xlink" x="0px" y="0px"
	 viewBox="0 0 841.9 510.2" style="enable-background:new 0 0 841.9 510.2;" xml:space="preserve">
<style type="text/css">
	.st0{fill:#131B3A;}
	.st1{fill:#FFFFFF;}
</style>
<rect class="st0" width="841.9" height="510.2"/>
<g>
	<g>
		<g>
			<path class="st1" d="M266.8,266.1h-18.2l-2.5,6.4c-0.2,0.5-0.6,0.8-1.1,0.8h-6.6c-0.7,0-0.9-0.3-0.7-0.9l15.8-35.1
				c0.1-0.3,0.4-0.5,0.9-0.5h7.6c0.5,0,0.7,0.2,0.9,0.5l15.1,34.9c0.2,0.5-0.1,1.1-0.7,1.1h-6.4c-0.7,0-1.1-0.3-1.4-0.9L266.8,266.1
				z M251.4,259.1h12.7l-5.9-15h-0.7L251.4,259.1z"/>
			<path class="st1" d="M283,237.8c0-0.6,0.3-0.9,0.9-0.9h5.9c0.6,0,0.9,0.3,0.9,0.9v19.4c0,5.4,3,9.3,8.6,9.3
				c5.4,0,8.6-3.7,8.6-9.3v-19.4c0-0.6,0.3-0.9,0.9-0.9h5.9c0.6,0,0.9,0.3,0.9,0.9v19.5c0,9.5-6.3,16.6-16.4,16.6
				c-10.1,0-16.4-7.2-16.4-16.6V237.8z"/>
			<path class="st1" d="M353.2,236.9c0.6,0,0.9,0.3,0.9,0.9v5.5c0,0.6-0.3,0.9-0.9,0.9h-11.7v28.2c0,0.6-0.3,0.9-0.9,0.9h-5.9
				c-0.6,0-0.9-0.3-0.9-0.9v-28.2h-11.7c-0.6,0-0.9-0.3-0.9-0.9v-5.5c0-0.6,0.3-0.9,0.9-0.9H353.2z"/>
			<path class="st1" d="M375.4,236.3c10.5,0,19.2,8.1,19.2,18.8c0,10.8-8.6,18.8-19.2,18.8c-10.6,0-19.2-8-19.2-18.8
				C356.1,244.4,364.8,236.3,375.4,236.3z M364,255.2c0,6.6,4.7,11.5,11.4,11.5c6.6,0,11.3-4.8,11.3-11.5c0-6.8-4.7-11.5-11.3-11.5
				C368.6,243.6,364,248.4,364,255.2z"/>
		</g>
	</g>
	<g>
		<g>
			<path class="st1" d="M439.9,236.8c0.6,0,0.9,0.3,0.9,0.9v34.2c0,0.6-0.3,0.9-0.9,0.9h-5.8c-0.6,0-0.9-0.3-0.9-0.9v-13.1l0.3-9.8
				l-0.4-0.1l-5.3,13.6l-4.1,9.6c-0.2,0.5-0.6,0.7-1.1,0.7h-4.5c-0.5,0-0.9-0.2-1.1-0.7l-3.9-9.6l-5.4-13.7l-0.4,0.1l0.3,9.9v13.1
				c0,0.6-0.3,0.9-0.9,0.9h-5.6c-0.6,0-0.9-0.3-0.9-0.9v-34.2c0-0.6,0.3-0.9,0.9-0.9h7.7c0.5,0,0.9,0.3,1.1,0.7l5.3,12.1l5.3,13.3
				h0.3l5.2-13.3l5-12.1c0.2-0.5,0.6-0.7,1.2-0.7H439.9z"/>
			<path class="st1" d="M466.4,236.3c10.4,0,18.9,8,18.9,18.6c0,10.6-8.5,18.5-18.9,18.5c-10.4,0-19-7.9-19-18.5
				C447.4,244.3,456,236.3,466.4,236.3z M455.2,254.9c0,6.5,4.6,11.3,11.2,11.3c6.5,0,11.2-4.8,11.2-11.3c0-6.7-4.6-11.4-11.2-11.4
				C459.8,243.5,455.2,248.2,455.2,254.9z"/>
			<path class="st1" d="M518.4,272.9c-0.5,0-0.8-0.1-1-0.5l-9.1-11.4l-9.1-12.9l-0.3,0.1l0.5,11.1v12.7c0,0.6-0.3,0.9-0.9,0.9h-5.6
				c-0.6,0-0.9-0.3-0.9-0.9v-34.2c0-0.6,0.3-0.9,0.9-0.9h5.1c0.5,0,0.9,0.1,1.3,0.5l9.9,12.6l8.3,11.8l0.3-0.1l-0.5-11.2v-12.6
				c0-0.6,0.3-0.9,0.9-0.9h5.6c0.6,0,0.9,0.3,0.9,0.9v34.2c0,0.6-0.3,0.9-0.9,0.9H518.4z"/>
			<path class="st1" d="M560.3,236.8c0.6,0,0.9,0.3,0.9,0.9v5.3c0,0.6-0.3,0.9-0.9,0.9h-20v6.7h17.6c0.6,0,0.9,0.3,0.9,0.9v5.3
				c0,0.6-0.3,0.9-0.9,0.9h-17.6v7.8h20.6c0.6,0,0.9,0.3,0.9,0.9v5.4c0,0.6-0.3,0.9-0.9,0.9h-27.3c-0.6,0-0.9-0.3-0.9-0.9v-34.2
				c0-0.5,0.5-0.9,0.9-0.9H560.3z"/>
			<path class="st1" d="M589.5,271.9c0,0.6-0.3,0.9-0.9,0.9h-5.8c-0.6,0-0.9-0.3-0.9-0.9v-8.3l-14.9-26.1c-0.2-0.3,0-0.7,0.5-0.7
				h7.3c0.3,0,0.7,0.2,0.9,0.5l10.1,18.7h0.5l9.6-18.6c0.2-0.4,0.5-0.6,0.9-0.6h7.2c0.5,0,0.7,0.3,0.5,0.8l-14.8,26V271.9z"/>
		</g>
	</g>
</g>
</svg>
